<?xml version="1.0" standalone="no"?><!DOCTYPE svg PUBLIC "-//W3C//DTD SVG 1.1//EN" "http://www.w3.org/Graphics/SVG/1.1/DTD/svg11.dtd"><svg t="1539085160264" class="icon" style="" viewBox="0 0 1024 1024" version="1.1" xmlns="http://www.w3.org/2000/svg" p-id="3189" xmlns:xlink="http://www.w3.org/1999/xlink" width="200" height="200"><defs><style type="text/css"></style></defs><path d="M531.692308 275.692308h236.307692a19.692308 19.692308 0 0 1 0 39.384615h-236.307692a19.692308 19.692308 0 1 1 0-39.384615z m0 315.076923h236.307692a19.692308 19.692308 0 0 1 0 39.384615h-236.307692a19.692308 19.692308 0 0 1 0-39.384615z m0-196.923077h236.307692a19.692308 19.692308 0 0 1 0 39.384615h-236.307692a19.692308 19.692308 0 0 1 0-39.384615z m0 315.076923h236.307692a19.692308 19.692308 0 1 1 0 39.384615h-236.307692a19.692308 19.692308 0 1 1 0-39.384615z" p-id="3190"></path><path d="M275.692308 275.692308v157.538461h157.538461V275.692308H275.692308z m0-39.384616h157.538461a39.384615 39.384615 0 0 1 39.384616 39.384616v157.538461a39.384615 39.384615 0 0 1-39.384616 39.384616H275.692308a39.384615 39.384615 0 0 1-39.384616-39.384616V275.692308a39.384615 39.384615 0 0 1 39.384616-39.384616zM275.692308 590.769231v157.538461h157.538461v-157.538461H275.692308z m0-39.384616h157.538461a39.384615 39.384615 0 0 1 39.384616 39.384616v157.538461a39.384615 39.384615 0 0 1-39.384616 39.384616H275.692308a39.384615 39.384615 0 0 1-39.384616-39.384616v-157.538461a39.384615 39.384615 0 0 1 39.384616-39.384616z" p-id="3191"></path></svg>