<?xml version="1.0" standalone="no"?><!DOCTYPE svg PUBLIC "-//W3C//DTD SVG 1.1//EN" "http://www.w3.org/Graphics/SVG/1.1/DTD/svg11.dtd"><svg t="1534429580206" class="icon" style="" viewBox="0 0 1025 1024" version="1.1" xmlns="http://www.w3.org/2000/svg" p-id="589" xmlns:xlink="http://www.w3.org/1999/xlink" width="200.1953125" height="200"><defs><style type="text/css"></style></defs><path d="M267.157708 61.988061C504.834369-63.934862 777.933993 10.796165 923.510948 206.650875c148.090842 199.511274 130.493628 471.925293-32.22347 650.182788-171.401438 187.855976-446.55788 217.337023-652.239605 88.671677-200.19688-125.237317-318.349604-411.134916-177.114819-678.749694C-19.654032 204.594058-14.169186 99.239307 44.335839 41.876959 102.383792-14.799783 205.45319-18.684882 267.157708 61.988061zM951.392248 513.116646c-0.914141-243.847112-194.712034-438.559146-437.187934-439.473287C269.671596 72.957753 74.502492 268.126857 74.045421 511.288364c-0.457071 243.618577 194.254963 438.330611 436.959399 439.701822C753.252186 952.132863 951.163713 754.906941 951.392248 513.116646zM100.326975 202.53724C134.835798 167.799882 168.659015 134.205201 202.710767 99.924913c-18.511355-21.253778-42.964627-31.309329-72.902745-23.996201C102.155257 82.556234 83.643902 100.610519 76.559309 128.034749 68.78911 157.972867 78.159056 183.340279 100.326975 202.53724z" p-id="590"></path><path d="M731.084267 223.105413c-14.169186 33.137611-28.109836 66.275223-42.736092 98.955764-23.767666 53.020178-49.363614 105.126215-72.217139 158.603464-25.595948 59.876236-63.98987 108.782779-114.03909 149.919124-66.960828 55.076995-133.236051 111.296667-199.739809 167.059268-2.056817 1.599747-4.113635 3.199494-9.369945 7.084593 3.885099-9.369945 6.170452-15.768932 8.912875-21.939384 41.36488-91.642636 82.501225-183.513806 124.323176-274.927907 13.712115-30.166653 33.366147-55.991136 58.962095-77.47345 79.987338-68.103505 159.74614-136.435545 239.504943-204.767585 1.371212-1.142676 2.970958-2.285353 4.34217-3.428029C729.713055 222.419807 730.398661 222.648343 731.084267 223.105413z" p-id="591"></path></svg>