<?xml version="1.0" standalone="no"?><!DOCTYPE svg PUBLIC "-//W3C//DTD SVG 1.1//EN" "http://www.w3.org/Graphics/SVG/1.1/DTD/svg11.dtd"><svg t="1534518195744" class="icon" style="" viewBox="0 0 1024 1024" version="1.1" xmlns="http://www.w3.org/2000/svg" p-id="2304" xmlns:xlink="http://www.w3.org/1999/xlink" width="200" height="200"><defs><style type="text/css"></style></defs><path d="M654.378667 1023.104l307.882666-66.602667s-111.104-751.488-112-756.48c-0.768-4.949333-4.864-8.192-9.002666-8.192s-82.304-5.802667-82.304-5.802666-54.4-54.357333-61.397334-60.202667a16.384 16.384 0 0 0-5.162666-3.157333l-38.997334 900.437333h0.981334zM499.626667 482.346667s-34.56-18.090667-75.690667-18.090667c-61.738667 0-64.170667 38.656-64.170667 48.682667 0 52.565333 138.24 73.173333 138.24 197.504 0 97.92-61.44 160.426667-145.322666 160.426666-100.437333 0-151.04-62.506667-151.04-62.506666l27.562666-89.002667s53.12 45.482667 97.28 45.482667a40.277333 40.277333 0 0 0 41.6-39.765334c0-69.077333-113.237333-72.277333-113.237333-185.984-1.450667-95.445333 67.029333-188.416 205.952-188.416 53.632 0 80 15.402667 80 15.402667l-40.32 115.84-0.853333 0.426667zM476.586667 35.413333c5.802667 0 11.562667 1.621333 17.28 5.76-41.984 19.84-88.064 69.930667-107.008 170.325334a2680.32 2680.32 0 0 1-80.597334 24.661333C328.405333 160 381.909333 35.84 476.586667 35.84V35.413333z m52.693333 125.824v5.76c-32.170667 9.898667-67.541333 20.650667-102.144 31.402667 19.882667-75.818667 56.874667-112.853333 88.96-126.762667 8.234667 21.376 13.184 50.176 13.184 89.6z m22.997333-95.317333c29.610667 3.157333 48.682667 36.992 60.970667 74.88-14.890667 4.864-31.36 9.856-49.408 15.616v-10.752c0-32.085333-4.096-58.496-11.562667-79.829333v0.085333z m127.658667 54.997333c-0.853333 0-2.56 0.896-3.328 0.896s-12.330667 3.2-30.464 8.96c-18.048-52.608-50.176-101.12-107.008-101.12h-4.906667C517.76 8.917333 497.877333 0 480.64 0 348.117333 0 284.8 165.418667 264.96 249.429333c-50.944 15.573333-88.021333 27.136-92.16 28.757334-28.8 9.088-29.610667 9.898667-32.938667 37.12-3.2 19.712-78.08 600.021333-78.08 600.021333L640.384 1024l39.552-903.082667z" fill="" p-id="2305"></path></svg>