<?xml version="1.0" standalone="no"?><!DOCTYPE svg PUBLIC "-//W3C//DTD SVG 1.1//EN" "http://www.w3.org/Graphics/SVG/1.1/DTD/svg11.dtd"><svg t="1534429810316" class="icon" style="" viewBox="0 0 1024 1024" version="1.1" xmlns="http://www.w3.org/2000/svg" p-id="2746" xmlns:xlink="http://www.w3.org/1999/xlink" width="200" height="200"><defs><style type="text/css"></style></defs><path d="M765.44 903.04H243.2c-28.8 0-56.96-12.16-76.16-33.28-19.84-21.12-29.44-49.92-26.88-78.72l46.72-543.36c4.48-53.76 49.28-94.72 103.04-94.72h428.8c54.4 0 98.56 40.96 103.04 94.72l46.72 543.36c2.56 28.8-7.04 57.6-26.88 78.72-19.2 21.12-46.72 33.28-76.16 33.28zM289.92 216.32c-20.48 0-37.76 15.36-39.68 35.84l-46.72 543.36c-0.64 10.88 2.56 21.76 10.24 30.08 7.68 8.32 17.92 12.8 29.44 12.8h522.24c11.52 0 21.76-4.48 29.44-12.8s11.52-19.2 10.24-30.08l-46.72-543.36c-1.92-20.48-18.56-35.84-39.68-35.84h-428.8z" fill="#515151" p-id="2747"></path><path d="M504.32 557.44c-100.48 0-181.76-81.28-181.76-181.76 0-15.36 1.92-31.36 6.4-47.36 4.48-17.28 22.4-26.88 39.04-22.4 17.28 4.48 26.88 22.4 22.4 39.04-2.56 10.24-4.48 20.48-4.48 30.72 0 64.64 53.12 117.76 117.76 117.76s117.76-53.12 117.76-117.76c0-10.24-1.28-20.48-4.48-30.72-4.48-17.28 5.76-34.56 22.4-39.04 17.28-4.48 34.56 5.76 39.04 22.4 4.48 16 6.4 32 6.4 47.36 1.28 99.84-80 181.76-180.48 181.76z" fill="#515151" p-id="2748"></path></svg>