<?xml version="1.0" standalone="no"?><!DOCTYPE svg PUBLIC "-//W3C//DTD SVG 1.1//EN" "http://www.w3.org/Graphics/SVG/1.1/DTD/svg11.dtd"><svg t="1534523030175" class="icon" style="" viewBox="0 0 1024 1024" version="1.1" xmlns="http://www.w3.org/2000/svg" p-id="2910" xmlns:xlink="http://www.w3.org/1999/xlink" width="200" height="200"><defs><style type="text/css"></style></defs><path d="M944.034249 633.500215c23.016203-39.981596-15.074324-75.582419-29.762861-98.216929 3.074012-27.688619 34.031071-43.973514 20.833491-91.273796-24.300452-87.098707-227.402173-50.854225-318.466192-48.612161l0-0.992607c42.678008-61.059658 92.612281-149.592017 65.479317-251.994268-10.169617-38.381146-19.005866-77.04984-68.455091-76.391854-3.306302 1.322112-6.614651 2.645247-9.91993 3.968381-7.580652 63.981197-50.29857 116.00813-81.353866 158.736281-7.605212 15.211447-15.21247 30.42494-22.816658 45.63741-18.036795 32.172747-53.831023 59.299571-83.338057 80.360236-27.454282 19.596314-122.467239 69.312622-134.925992 93.256964-9.200546 17.681708-1.779529 43.290969 1.983167 62.503543 4.629437 48.937572 9.260921 97.892541 13.890358 146.831136 0.661056 45.961798 1.323135 91.938945 1.983167 137.90279-0.010233 22.034852-4.062526 49.449225 4.960988 62.501496 12.995989 18.801205 100.229772 27.049053 127.981836 35.716456 39.570227 12.356422 61.096497 40.71326 99.209536 52.581566 54.331419 16.916275 185.019901 13.693884 246.041696 3.968381 36.479843-5.815449 69.795623-3.419889 95.242178-18.8493 17.575284-10.657734 39.792285-40.074717 29.763884-73.417103-3.695159-12.282744-19.490913-20.306488-14.881942-39.682791 5.461385-22.969131 38.352493-27.678386 47.620577-49.606815 22.384823-52.955072-31.126928-70.903863-25.794479-96.233762C913.187707 653.779074 935.598112 648.156006 944.034249 633.500215zM250.552941 521.392928c-5.600555-30.841426-5.201465-71.355141-24.801872-88.296999-17.502629-15.127536-96.234785-25.429159-126.990253-26.786063-6.894014 8.53949-16.518209 14.504342-20.833491 25.794479-10.253528 26.818809-2.957355 74.497715 1.983167 104.169501 13.56597 81.459267 18.691711 165.495218 33.732266 244.058528 5.042853 26.336832 5.652743 88.493473 21.826098 101.19475 21.132296 16.597003 93.248777 14.668071 122.029264 5.952572 15.220656-22.539342 9.341762-81.697697 8.92937-117.067252C265.431813 685.157735 264.238638 596.759429 250.552941 521.392928z" p-id="2911"></path></svg>