<?xml version="1.0" standalone="no"?><!DOCTYPE svg PUBLIC "-//W3C//DTD SVG 1.1//EN" "http://www.w3.org/Graphics/SVG/1.1/DTD/svg11.dtd"><svg t="1534430815056" class="icon" style="" viewBox="0 0 1024 1024" version="1.1" xmlns="http://www.w3.org/2000/svg" p-id="3383" xmlns:xlink="http://www.w3.org/1999/xlink" width="200" height="200"><defs><style type="text/css"></style></defs><path d="M823.598545 142.871273c3.770182 3.328 7.796364 6.306909 11.473455 9.728l-3.84 4.142545a34.839273 34.839273 0 0 1-33.698909 44.055273c-2.117818 0-4.189091-0.698182-6.306909-1.117091l-3.700364 4.002909c-6.283636-5.864727-12.962909-11.147636-19.595636-16.593454a410.181818 410.181818 0 0 0-176.733091-84.922182 415.185455 415.185455 0 0 0-24.529455-4.212364A414.650182 414.650182 0 0 0 506.181818 93.090909a410.763636 410.763636 0 0 0-134.283636 22.877091 412.858182 412.858182 0 0 0-152.599273 93.649455c-4.072727 3.933091-8.005818 8.029091-11.915636 12.148363a412.858182 412.858182 0 0 0-92.602182 153.320727c-2.304 6.842182-4.328727 13.777455-6.260364 20.759273A411.368727 411.368727 0 0 0 93.090909 506.181818c0 23.714909 2.466909 46.778182 6.306909 69.422546 1.233455 7.214545 2.513455 14.429091 4.119273 21.573818a411.298909 411.298909 0 0 0 77.149091 162.443636c3.467636 4.421818 6.888727 8.890182 10.542545 13.195637a414.859636 414.859636 0 0 0 142.592 108.288c6.074182 2.792727 12.125091 5.585455 18.338909 8.075636A410.368 410.368 0 0 0 506.181818 919.272727v0.651637c1.954909-0.372364 3.933091-0.674909 6.004364-0.698182a405.76 405.76 0 0 0 44.218182-2.978909 34.978909 34.978909 0 0 1 38.842181 30.464 34.909091 34.909091 0 0 1-30.440727 38.865454 483.84 483.84 0 0 1-51.642182 3.467637h-0.512c-2.210909 0-4.352-0.232727-6.469818-0.628364v0.674909c-58.740364 0-114.827636-11.054545-166.958545-30.347636-1.28-0.349091-2.56-0.232727-3.816728-0.721455-5.445818-2.048-10.821818-4.375273-16.22109-6.656l-1.256728-0.488727a492.264727 492.264727 0 0 1-29.952-13.777455 31.604364 31.604364 0 0 1-4.305454-2.769454 484.421818 484.421818 0 0 1-132.794182-102.260364 34.699636 34.699636 0 0 1-5.701818-5.12 487.633455 487.633455 0 0 1-32.279273-40.517818c-1.024-1.396364-1.768727-2.932364-2.536727-4.421818a480.651636 480.651636 0 0 1-71.354182-155.741091c-0.465455-1.28-1.28-2.327273-1.605818-3.677091-1.373091-5.585455-2.513455-11.264-3.700364-16.919273l-0.791273-3.630545a464.407273 464.407273 0 0 1-5.236363-30.347637c-0.209455-1.675636-0.186182-3.281455-0.162909-4.910545A482.048 482.048 0 0 1 23.272727 506.181818c0-37.655273 4.770909-74.123636 12.962909-109.335273 0.162909-1.722182 0.302545-3.444364 0.721455-5.21309 2.327273-9.518545 5.050182-19.013818 7.959273-28.416l0.465454-1.44291c2.071273-6.632727 4.212364-13.265455 6.562909-19.781818 0.791273-2.187636 1.792-4.235636 2.955637-6.144a482.909091 482.909091 0 0 1 85.387636-143.918545c1.070545-1.768727 2.257455-3.514182 3.677091-5.12 4.142545-4.677818 8.820364-8.843636 13.149091-13.405091 4.491636-4.677818 8.983273-9.332364 13.637818-13.847273 3.258182-3.165091 6.167273-6.632727 9.495273-9.681454 1.024-0.930909 2.304-1.256727 3.374545-2.024728a482.839273 482.839273 0 0 1 145.175273-90.368c1.559273-0.907636 3.141818-1.792 4.864-2.443636 9.448727-3.653818 19.083636-6.865455 28.741818-9.890909l1.093818-0.325818c6.516364-2.001455 13.032727-4.002909 19.572364-5.701818 2.141091-0.535273 4.258909-0.837818 6.4-0.977455A480.302545 480.302545 0 0 1 506.181818 23.272727c17.989818 0 35.793455 1.303273 53.457455 3.258182 1.093818 0 2.164364-0.093091 3.258182 0.023273a483.653818 483.653818 0 0 1 36.95709 5.981091c4.701091 0.907636 9.425455 1.745455 14.08 2.792727 2.024727 0.442182 3.909818 1.163636 5.748364 1.931636a478.440727 478.440727 0 0 1 155.438546 68.328728c1.396364 0.698182 2.769455 1.326545 4.096 2.234181 2.955636 2.048 5.608727 4.468364 8.517818 6.56291 8.168727 5.864727 16.104727 11.985455 23.924363 18.362181 2.792727 2.304 5.888 4.305455 8.610909 6.656 1.256727 1.047273 2.280727 2.280727 3.328 3.467637zM741.003636 846.103273a34.932364 34.932364 0 0 1 39.819637 57.367272c-14.033455 9.728-28.834909 18.850909-44.101818 27.182546a34.909091 34.909091 0 0 1-33.44291-61.277091 424.238545 424.238545 0 0 0 37.725091-23.272727zM954.181818 470.341818c19.269818 0 34.909091 14.754909 34.909091 34.024727v1.792c0 17.245091-0.930909 34.629818-2.746182 51.688728a34.909091 34.909091 0 0 1-69.422545-7.424c1.559273-14.592 2.350545-29.463273 2.350545-44.264728 0-19.269818 15.639273-35.816727 34.909091-35.816727z m-34.909091 213.061818a34.955636 34.955636 0 0 1 14.661818 47.150546c-7.982545 15.127273-16.919273 30.091636-26.530909 44.497454a34.862545 34.862545 0 0 1-48.453818 9.541819 34.909091 34.909091 0 0 1-9.541818-48.407273c8.261818-12.381091 15.895273-25.181091 22.690909-38.144a34.978909 34.978909 0 0 1 47.150546-14.661818z m-33.419636-417.745454a34.862545 34.862545 0 0 1 47.173818 14.475636c8.075636 15.220364 15.406545 31.045818 21.783273 47.010909a34.909091 34.909091 0 1 1-64.814546 25.902546 422.167273 422.167273 0 0 0-18.641454-40.238546 34.885818 34.885818 0 0 1 14.498909-47.173818z m-146.990546-8.168727a34.909091 34.909091 0 0 1 0 49.338181l-205.777454 205.800728v297.541818a34.909091 34.909091 0 1 1-69.818182 0V498.199273a34.909091 34.909091 0 0 1 10.24-24.692364l215.994182-215.994182a34.909091 34.909091 0 0 1 49.361454 0z" fill="#797979" p-id="3384"></path></svg>