<?xml version="1.0" standalone="no"?><!DOCTYPE svg PUBLIC "-//W3C//DTD SVG 1.1//EN" "http://www.w3.org/Graphics/SVG/1.1/DTD/svg11.dtd"><svg t="1535032477905" class="icon" style="" viewBox="0 0 1024 1024" version="1.1" xmlns="http://www.w3.org/2000/svg" p-id="3019" xmlns:xlink="http://www.w3.org/1999/xlink" width="200" height="200"><defs><style type="text/css"></style></defs><path d="M908.510917 921.465947l0-4.157685c0-0.661054 0.00921-1.066283 0.079818-1.705848 0.099261-1.454115 1.567702-27.313011-15.762977-56.042275-10.430539-17.292817-25.633769-32.400879-45.185018-44.907703-25.163049-16.093504-57.616117-27.926994-96.458696-35.171987-4.473886-0.619099-37.611544-5.365184-72.383419-14.518639-68.218571-17.960011-84.804285-37.940025-89.842011-52.442291-3.859903-7.484447-6.021122-22.361242-2.878555-57.99167 6.923676-78.445473 47.644018-124.637423 77.378167-158.366551 8.43305-9.564824 15.713859-17.826982 20.91429-25.334964 20.360683-29.414878 23.559532-63.918647 23.874709-68.070192-0.031722-2.171451-0.251733-3.107775-0.348947-3.421929-0.240476-0.770548-1.829668-2.45593-3.366671-4.086053-1.204429-1.280153-2.571563-2.731199-3.986793-4.422721-7.664548-9.162665-10.395747-20.321797-8.349139-34.113891 2.282992-15.387425 3.645009-28.157237 4.288668-40.186177 1.88288-35.19143 0.881065-61.458624-3.242851-85.167558-0.055258-0.315178-0.10233-0.631379-0.139169-0.948603-0.512675-4.278435-1.476628-9.017356-3.036143-14.913635-4.80646-18.204581-12.268393-33.521397-22.180118-45.534988-1.651613-1.686405-14.832794-14.583107-44.235392-28.610561-52.910965-25.242867-116.450989-34.562098-160.437718-37.934908-21.147604-1.620914-42.845745-0.70608-63.257593 0.370436l-1.136891 0.057305c-1.702778 0.086981-4.565983 0.23229-7.285926 0.507559 2.359739 5.630219 5.256713 14.105224 2.213407 24.232866-1.142007 3.798505-2.894927 7.513099-5.517656 11.693297-6.490818 10.348675-15.351609 18.545341-23.191142 25.207051-1.540073 1.389647-32.994396 30.228405-34.081145 63.375273-0.027629 0.839109-0.112563 1.674126-0.257873 2.500955-5.756086 33.072167-5.368254 87.520134 0.866739 121.372059 0.135076 0.737802 0.278339 1.470488 0.420578 2.201127 1.908462 9.839069 5.105264 26.304033-10.488868 40.68555l-0.419555 0.387832c-2.011816 1.856274-4.766551 4.397138-5.221921 5.273086 0.004093 0-0.127913 0.410345-0.158612 1.52677 0.316201 4.140289 3.523236 38.620522 23.874709 68.02005 5.197362 7.507983 12.480217 15.768094 20.913267 25.334964 29.733125 33.728105 70.454491 79.921078 77.377144 158.364504 3.142567 35.630427 0.981349 50.5062-2.878555 57.993716-5.037726 14.502266-21.621393 34.481257-89.842011 52.441268-35.0584 9.231227-68.454955 13.976288-72.486773 14.532966-38.404605 6.708782-70.567054 18.204581-95.598097 34.172219-19.461198 12.413703-34.678754 27.570884-45.234137 45.053012-17.625391 29.192821-16.518176 55.782356-16.442451 57.204749 0.048095 0.523932 0.052189 0.835016 0.052189 1.381461l0 4.155638M97.404229 957.512859c-9.954703 0-18.024479-8.069777-18.024479-18.024479l0-21.661302c-0.306991-6.040564-0.877995-39.144454 20.249143-75.493241 13.22416-22.751121 32.229988-42.284974 56.493552-58.061254 29.398505-19.116345 66.633473-32.691498 110.672391-40.345813 0.225127-0.038886 0.450254-0.072655 0.675381-0.1054 0.335644-0.044002 34.224407-4.68264 68.650406-13.758324 59.671935-15.731255 64.890786-29.638981 64.926602-29.776104 0.350993-1.379414 0.861622-2.70357 1.516537-3.946884 0.489139-2.602262 1.700732-12.39733-0.615006-38.640988-5.881952-66.652916-40.606755-106.043986-68.508166-137.694784-8.799392-9.982332-17.110669-19.410033-23.511436-28.655586-27.610793-39.886349-30.1711-85.239189-30.268314-87.150722-0.014326-0.299828-0.021489-0.60068-0.021489-0.900508 0-18.104297 9.027589-26.431946 16.991965-33.781317l0.418531-0.386809c0.260943-0.242523 0.424671-0.421601 0.522908-0.537235 0.089027-1.292433-0.547468-4.572123-0.977255-6.7886-0.164752-0.842179-0.328481-1.686405-0.484023-2.537794-6.921629-37.581868-7.395419-95.628796-1.133821-132.885254 2.323924-48.98864 44.564896-86.488644 46.378191-88.074765 0.068561-0.059352 0.138146-0.118703 0.207731-0.179078 6.063077-5.146197 12.216205-10.767206 16.12625-17.002199 0.469697-0.748035 0.797154-1.328249 1.027397-1.770316-0.293688-0.759292-0.714266-1.729384-1.055027-2.515282-2.348483-5.417372-5.898325-13.602782-3.879346-24.125419 1.218755-6.351649 5.860463-17.702139 23.25254-22.340776 7.000424-1.86753 14.482824-2.250246 19.945221-2.528585l1.081632-0.055258c21.585578-1.135868 44.611968-2.098797 67.906464-0.313131 168.452236 12.915122 226.479722 75.859583 228.86709 78.533477 0.135076 0.149402 0.266059 0.302898 0.393972 0.456394 13.485102 16.155926 23.472551 36.284319 29.69117 59.827477 1.942231 7.344254 3.189639 13.512731 3.917208 19.349658 5.882976 34.190638 4.900604 69.321693 3.646033 92.81164-0.70608 13.183227-2.176568 27.022393-4.627381 43.552848-0.667194 4.489235 0.065491 5.365184 0.341784 5.694688 0.731662 0.873902 1.62603 1.824551 2.571563 2.829436 3.72585 3.950977 8.823952 9.364256 11.535708 18.048015 1.358948 4.340856 1.99442 9.024519 1.99442 14.719207 0 0.299828-0.007163 0.60068-0.022513 0.900508-0.095167 1.911532-2.655474 47.264372-30.266267 87.149698-6.400767 9.245553-14.712044 18.673254-23.511436 28.654563-27.902434 31.650797-62.626214 71.042891-68.508166 137.698877-2.315737 26.242635-1.104145 36.035656-0.615006 38.639965 0.653891 1.244338 1.165543 2.568493 1.51449 3.945861 0.036839 0.137123 5.276156 14.089875 65.219267 29.851829 34.421905 9.053172 68.02312 13.637574 68.358764 13.6826 0.292665 0.039909 0.584307 0.086981 0.875948 0.141216 44.440053 8.242715 81.904241 22.166815 111.353911 41.380373 24.345429 15.88475 43.317488 35.383811 56.389175 57.955854 20.729072 35.794156 19.884846 68.173546 19.470408 74.661294l0 21.530319c0 9.955726-8.071823 18.024479-18.025503 18.024479M616.777136 690.730303c0.437974 0.35611 0.858552 0.730639 1.258664 1.124611C617.656154 691.480385 617.236599 691.103809 616.777136 690.730303M407.163513 690.730303c-0.45537 0.368389-0.869809 0.741896-1.246384 1.111308C406.31417 691.454803 406.729632 691.083343 407.163513 690.730303" p-id="3020"></path></svg>