<?xml version="1.0" standalone="no"?><!DOCTYPE svg PUBLIC "-//W3C//DTD SVG 1.1//EN" "http://www.w3.org/Graphics/SVG/1.1/DTD/svg11.dtd"><svg t="1534781988315" class="icon" style="" viewBox="0 0 1024 1024" version="1.1" xmlns="http://www.w3.org/2000/svg" p-id="3325" xmlns:xlink="http://www.w3.org/1999/xlink" width="200" height="200"><defs><style type="text/css"></style></defs><path d="M966.4 800 889.6 0l-768 0-64 806.4L57.6 1024l908.8 0L966.4 800 966.4 800zM825.6 64l64 704-768 0 64-704L825.6 64 825.6 64zM115.2 960l0-128 774.4 0 0 128L115.2 960 115.2 960z" p-id="3326"></path><path d="M396.8 537.6 396.8 537.6c6.4 0 6.4 0 12.8 0l198.4 0c38.4 0 70.4-32 70.4-70.4l0 0c0-32-25.6-57.6-57.6-70.4C627.2 384 627.2 371.2 627.2 364.8c0-51.2-44.8-89.6-96-89.6C499.2 275.2 467.2 294.4 448 320 441.6 313.6 435.2 313.6 428.8 313.6c-32 0-51.2 19.2-51.2 44.8l0 0C332.8 371.2 307.2 409.6 307.2 448 307.2 499.2 345.6 537.6 396.8 537.6L396.8 537.6z" p-id="3327"></path><path d="M768 857.6l64 0 0 64-64 0L768 857.6 768 857.6z" p-id="3328"></path><path d="M659.2 857.6l64 0 0 64-64 0L659.2 857.6 659.2 857.6z" p-id="3329"></path></svg>